<mxfile host="app.diagrams.net" modified="2022-04-18T11:59:28.858Z" agent="5.0 (Windows NT 10.0; Win64; x64) AppleWebKit/537.36 (KHTML, like Gecko) Chrome/100.0.4896.75 Safari/537.36" etag="wMWEjlY1IEcYcbRZeqET" version="17.4.5" type="github">
  <diagram id="kgpKYQtTHZ0yAKxKKP6v" name="Page-1">
    <mxGraphModel dx="1060" dy="581" grid="1" gridSize="10" guides="1" tooltips="1" connect="1" arrows="1" fold="1" page="1" pageScale="1" pageWidth="1100" pageHeight="1100" math="0" shadow="0">
      <root>
        <mxCell id="0" />
        <mxCell id="1" parent="0" />
        <mxCell id="IboOVLr7oUpnxhzywGf7-25" value="超级管理员" style="rounded=1;whiteSpace=wrap;html=1;sketch=0;" vertex="1" parent="1">
          <mxGeometry x="40" y="355" width="110" height="40" as="geometry" />
        </mxCell>
        <mxCell id="IboOVLr7oUpnxhzywGf7-26" value="" style="shape=curlyBracket;whiteSpace=wrap;html=1;rounded=1;sketch=0;size=0.4;" vertex="1" parent="1">
          <mxGeometry x="150" y="210" width="50" height="330" as="geometry" />
        </mxCell>
        <mxCell id="IboOVLr7oUpnxhzywGf7-28" value="表单设计页" style="rounded=0;whiteSpace=wrap;html=1;sketch=0;" vertex="1" parent="1">
          <mxGeometry x="210" y="190" width="120" height="40" as="geometry" />
        </mxCell>
        <mxCell id="IboOVLr7oUpnxhzywGf7-31" value="" style="shape=curlyBracket;whiteSpace=wrap;html=1;rounded=1;sketch=0;size=0.4;" vertex="1" parent="1">
          <mxGeometry x="330" y="130" width="50" height="160" as="geometry" />
        </mxCell>
        <mxCell id="IboOVLr7oUpnxhzywGf7-35" value="头部" style="rounded=0;whiteSpace=wrap;html=1;sketch=0;" vertex="1" parent="1">
          <mxGeometry x="390" y="120" width="120" height="30" as="geometry" />
        </mxCell>
        <mxCell id="IboOVLr7oUpnxhzywGf7-36" value="组件区" style="rounded=0;whiteSpace=wrap;html=1;sketch=0;" vertex="1" parent="1">
          <mxGeometry x="390" y="170" width="120" height="30" as="geometry" />
        </mxCell>
        <mxCell id="IboOVLr7oUpnxhzywGf7-37" value="属性区" style="rounded=0;whiteSpace=wrap;html=1;sketch=0;" vertex="1" parent="1">
          <mxGeometry x="390" y="220" width="120" height="30" as="geometry" />
        </mxCell>
        <mxCell id="IboOVLr7oUpnxhzywGf7-38" value="设计区" style="rounded=0;whiteSpace=wrap;html=1;sketch=0;" vertex="1" parent="1">
          <mxGeometry x="390" y="270" width="120" height="30" as="geometry" />
        </mxCell>
        <mxCell id="IboOVLr7oUpnxhzywGf7-39" value="布局切换，路由地址、预览、保存" style="text;html=1;strokeColor=none;fillColor=none;align=left;verticalAlign=middle;whiteSpace=wrap;rounded=0;sketch=0;" vertex="1" parent="1">
          <mxGeometry x="530" y="120" width="250" height="30" as="geometry" />
        </mxCell>
        <mxCell id="IboOVLr7oUpnxhzywGf7-40" value="输入组件、选择组件、动态组件" style="text;html=1;strokeColor=none;fillColor=none;align=left;verticalAlign=middle;whiteSpace=wrap;rounded=0;sketch=0;" vertex="1" parent="1">
          <mxGeometry x="530" y="170" width="250" height="30" as="geometry" />
        </mxCell>
        <mxCell id="IboOVLr7oUpnxhzywGf7-41" value="设置组件和表单属性" style="text;html=1;strokeColor=none;fillColor=none;align=left;verticalAlign=middle;whiteSpace=wrap;rounded=0;sketch=0;" vertex="1" parent="1">
          <mxGeometry x="530" y="220" width="250" height="30" as="geometry" />
        </mxCell>
        <mxCell id="IboOVLr7oUpnxhzywGf7-42" value="拖拽组件到 设计区，所见即所得" style="text;html=1;strokeColor=none;fillColor=none;align=left;verticalAlign=middle;whiteSpace=wrap;rounded=0;sketch=0;" vertex="1" parent="1">
          <mxGeometry x="530" y="270" width="250" height="30" as="geometry" />
        </mxCell>
        <mxCell id="IboOVLr7oUpnxhzywGf7-43" value="表单列表页" style="rounded=0;whiteSpace=wrap;html=1;sketch=0;" vertex="1" parent="1">
          <mxGeometry x="210" y="365" width="120" height="40" as="geometry" />
        </mxCell>
        <mxCell id="IboOVLr7oUpnxhzywGf7-44" value="" style="shape=curlyBracket;whiteSpace=wrap;html=1;rounded=1;sketch=0;size=0.4;" vertex="1" parent="1">
          <mxGeometry x="330" y="330" width="50" height="110" as="geometry" />
        </mxCell>
        <mxCell id="IboOVLr7oUpnxhzywGf7-45" value="新增按钮" style="rounded=0;whiteSpace=wrap;html=1;sketch=0;" vertex="1" parent="1">
          <mxGeometry x="390" y="320" width="120" height="30" as="geometry" />
        </mxCell>
        <mxCell id="IboOVLr7oUpnxhzywGf7-46" value="筛选框" style="rounded=0;whiteSpace=wrap;html=1;sketch=0;" vertex="1" parent="1">
          <mxGeometry x="390" y="370" width="120" height="30" as="geometry" />
        </mxCell>
        <mxCell id="IboOVLr7oUpnxhzywGf7-47" value="数据表格" style="rounded=0;whiteSpace=wrap;html=1;sketch=0;" vertex="1" parent="1">
          <mxGeometry x="390" y="420" width="120" height="30" as="geometry" />
        </mxCell>
        <mxCell id="IboOVLr7oUpnxhzywGf7-50" value="点击新增，弹出新增表单弹窗，输入基础属性，跳转到表单设计页" style="text;html=1;strokeColor=none;fillColor=none;align=left;verticalAlign=middle;whiteSpace=wrap;rounded=0;sketch=0;" vertex="1" parent="1">
          <mxGeometry x="530" y="320" width="250" height="30" as="geometry" />
        </mxCell>
        <mxCell id="IboOVLr7oUpnxhzywGf7-51" value="输入筛选条件，查询筛选结果" style="text;html=1;strokeColor=none;fillColor=none;align=left;verticalAlign=middle;whiteSpace=wrap;rounded=0;sketch=0;" vertex="1" parent="1">
          <mxGeometry x="530" y="370" width="250" height="30" as="geometry" />
        </mxCell>
        <mxCell id="IboOVLr7oUpnxhzywGf7-52" value="展示现有表单" style="text;html=1;strokeColor=none;fillColor=none;align=left;verticalAlign=middle;whiteSpace=wrap;rounded=0;sketch=0;" vertex="1" parent="1">
          <mxGeometry x="530" y="420" width="250" height="30" as="geometry" />
        </mxCell>
        <mxCell id="IboOVLr7oUpnxhzywGf7-53" value="提交列表页" style="rounded=0;whiteSpace=wrap;html=1;sketch=0;" vertex="1" parent="1">
          <mxGeometry x="210" y="515" width="120" height="40" as="geometry" />
        </mxCell>
        <mxCell id="IboOVLr7oUpnxhzywGf7-54" value="" style="shape=curlyBracket;whiteSpace=wrap;html=1;rounded=1;sketch=0;size=0.4;" vertex="1" parent="1">
          <mxGeometry x="330" y="480" width="50" height="110" as="geometry" />
        </mxCell>
        <mxCell id="IboOVLr7oUpnxhzywGf7-55" value="数据表格" style="rounded=0;whiteSpace=wrap;html=1;sketch=0;" vertex="1" parent="1">
          <mxGeometry x="390" y="470" width="120" height="30" as="geometry" />
        </mxCell>
        <mxCell id="IboOVLr7oUpnxhzywGf7-56" value="审核" style="rounded=0;whiteSpace=wrap;html=1;sketch=0;" vertex="1" parent="1">
          <mxGeometry x="390" y="520" width="120" height="30" as="geometry" />
        </mxCell>
        <mxCell id="IboOVLr7oUpnxhzywGf7-57" value="编辑" style="rounded=0;whiteSpace=wrap;html=1;sketch=0;" vertex="1" parent="1">
          <mxGeometry x="390" y="570" width="120" height="30" as="geometry" />
        </mxCell>
        <mxCell id="IboOVLr7oUpnxhzywGf7-59" value="展示用户提交的数据" style="text;html=1;strokeColor=none;fillColor=none;align=left;verticalAlign=middle;whiteSpace=wrap;rounded=0;sketch=0;" vertex="1" parent="1">
          <mxGeometry x="530" y="470" width="250" height="30" as="geometry" />
        </mxCell>
        <mxCell id="IboOVLr7oUpnxhzywGf7-60" value="管理员审核提交数据" style="text;html=1;strokeColor=none;fillColor=none;align=left;verticalAlign=middle;whiteSpace=wrap;rounded=0;sketch=0;" vertex="1" parent="1">
          <mxGeometry x="530" y="520" width="250" height="30" as="geometry" />
        </mxCell>
        <mxCell id="IboOVLr7oUpnxhzywGf7-61" value="跳转到预览页，编辑表单数据" style="text;html=1;strokeColor=none;fillColor=none;align=left;verticalAlign=middle;whiteSpace=wrap;rounded=0;sketch=0;" vertex="1" parent="1">
          <mxGeometry x="530" y="570" width="250" height="30" as="geometry" />
        </mxCell>
      </root>
    </mxGraphModel>
  </diagram>
</mxfile>
